<svg xmlns="http://www.w3.org/2000/svg" viewBox="0 0 885.6 143.8"><path fill="#020d13" d="M106.5 143.8H71.8A71.9 71.9 0 1 1 71.8 0h34.7v17.7H71.8a54.2 54.2 0 0 0 0 108.4h34.7zm143.6 0H116.5L183.5 0l9.7 21-49 105.1h78.3l-29.3-63.3 9.6-20.8 39 84.1zM367.8 0v143.8l-106-117.3V0l88.3 98V0zm-106 52.8l17.7 19.6v71.4H262zM383 0h133.6l-8.2 17.7-49 105.1-9.6 21-9.8-21 9.8-20.8L489 17.7h-78.4L440 81l-9.6 20.8-39-84.1zm270 143.8H519.4L586.3 0l9.8 21-49 105.1h78.3L596 62.8l9.6-20.8 39 84.1zm50.4-126.1a22.4 22.4 0 0 0-22.5 22.5v.4a22.6 22.6 0 0 0 22.5 22.6h8.6c9.6 0 18 3.5 25.1 8.8a39.9 39.9 0 0 1 15 31.2v.4a40.1 40.1 0 0 1-40 40.2h-49v-17.7h49a22.4 22.4 0 0 0 22.5-22.5v-.4A22.6 22.6 0 0 0 712 80.6h-9.4a40 40 0 0 1-39.4-40v-.4A40.3 40.3 0 0 1 703.4 0H752v17.7zm62.3 118.5h7.6v7.6h-7.6zm22.8-19.2l-9.4-16.3h6l6.4 11zm9.2 5.3l12.3 21.5h-6l-9.4-16.2-9.3 16.2H779l25-43.1h6l-12.5 21.5zm34.9 3.8L820 113.6v30.2h-5.3v-43.1l18 18 17.7-18v7.4zm12.6 17.7V121l5.3-5.3v28zm17.1-10.6H857v-32.5h5.3zm23.3 10.6H857v-5.3h28.6z"/></svg>